<svg version="1.1" width="1000" height="1000" viewBox="0 0 250 250" xmlns="http://www.w3.org/2000/svg" xmlns:xlink="http://www.w3.org/1999/xlink"><g xmlns="http://www.w3.org/2000/svg" id="obj_1"><g id="obj_31" transform="matrix(1,0,0,1,17.699,3)" opacity="1" display="inline"><path d="M 107.297 2.813 C 62.2124 2.813 25.0537 89.5532 20.3107 200.8559 C 18.0538 202.6502 15.5121 204 12.0536 204 C 6.7224 204 3.4922 200.7926 0 197.6943 C 6.48 86.3583 52.0738 0 107.297 0 C 162.6703 0 208.3613 86.8258 214.644 198.5976 C 211.7898 201.3857 208.7257 204 202.9796 204 C 199.0539 204 196.4433 202.7798 194.2943 201.1176 C 189.5987 89.6892 152.4197 2.813 107.297 2.813 Z " fill-opacity="1" fill="#999999" stroke-opacity="1" stroke="#000000" stroke-width="2" stroke-linecap="round" stroke-linejoin="bevel"/><defs/></g><g id="obj_12" transform="matrix(0.7071067811865476,-0.7071067811865475,0.7071067811865475,0.7071067811865476,55.56599495683749,70.91955725928429)" opacity="1" display="inline"><path d="M 0 56.094 L 4.784 42.07 L 9.567 28.047 L 14.352 42.07 L 19.134 56.094 L 9.567 56.094 L 0 56.094 Z M 9.567 28.047 L 14.352 14.024 L 19.134 0 L 23.918 14.024 L 28.701 28.047 L 19.134 28.047 L 9.567 28.047 Z M 23.918 42.07 L 28.701 28.047 L 33.486 42.07 L 38.268 56.094 L 28.701 56.094 L 19.134 56.094 L 23.918 42.07 Z " fill-opacity="0" fill="none" stroke-opacity="1" stroke="#000000" stroke-width="2" stroke-linecap="round" stroke-linejoin="bevel"/><defs/></g><g id="obj_7" transform="matrix(0.7071067811865476,-0.7071067811865475,0.7071067811865475,0.7071067811865476,49.39633270422371,143.972556988987)" opacity="1" display="inline"><path d="M 11.422 85.815 C 7.899 83.024 5.115 79.227 3.07 74.42 C 1.024 69.614 0 64.376 0 58.705 C 0 57.743 0.03 56.788 0.089 55.852 C -0.983 45.6899 7.752 28.9399 21.659 15.6539 C 36.298 1.6679 51.615 -3.6611 57.697 2.5939 L 92.306 2.5939 C 98.387 -3.6611 113.704 1.6679 128.342 15.6539 C 142.25 28.9399 150.984 45.6899 149.912 55.852 C 149.971 56.788 150.001 57.743 150.001 58.705 C 150.001 64.376 148.978 69.614 146.932 74.42 C 144.886 79.227 142.101 83.024 138.579 85.815 C 135.056 88.605 131.216 90 127.066 90 C 122.915 90 119.075 88.605 115.552 85.815 C 112.03 83.024 109.246 79.227 107.199 74.42 C 106.785 73.439 106.411 72.449 106.081 71.44 L 43.92 71.44 C 43.59 72.449 43.217 73.439 42.802 74.42 C 40.755 79.227 37.972 83.024 34.449 85.815 C 30.926 88.605 27.087 90 22.935 90 C 18.785 90 14.945 88.605 11.422 85.815 Z " fill-opacity="1" fill="#ffffff" stroke-opacity="1" stroke="#000000" stroke-width="2" stroke-linecap="round" stroke-linejoin="bevel"/><defs/></g><g id="obj_13" transform="matrix(1,0,0,1,59.383,47.677)" opacity="1" display="inline"><path d="M 9.713 0 C 15.075 0 19.426 4.352 19.426 9.713 C 19.426 15.075 15.075 19.426 9.713 19.426 C 4.352 19.426 0 15.075 0 9.713 C 0 4.352 4.352 0 9.713 0 Z " fill-opacity="1" fill="#f76a52" stroke-opacity="1" stroke="#000000" stroke-width="2" stroke-linecap="round" stroke-linejoin="bevel"/><defs/></g><g id="obj_16" transform="matrix(1,0,0,1,151.817,74.014)" opacity="1" display="inline"><path d="M 5 0 C 7.76 0 10 2.24 10 5 C 10 7.76 7.76 10 5 10 C 2.24 10 0 7.76 0 5 C 0 2.24 2.24 0 5 0 Z " fill-opacity="1" fill="#f76a52" stroke-opacity="1" stroke="#000000" stroke-width="2" stroke-linecap="round" stroke-linejoin="bevel"/><defs/></g><g id="obj_17" transform="matrix(1,0,0,1,166.212,74.417)" opacity="1" display="inline"><path d="M 5 0 C 7.76 0 10 2.24 10 5 C 10 7.76 7.76 10 5 10 C 2.24 10 0 7.76 0 5 C 0 2.24 2.24 0 5 0 Z " fill-opacity="1" fill="#f76a52" stroke-opacity="1" stroke="#000000" stroke-width="2" stroke-linecap="round" stroke-linejoin="bevel"/><defs/></g><g id="obj_18" transform="matrix(1,0,0,1,166.212,89.103)" opacity="1" display="inline"><path d="M 5 0 C 7.76 0 10 2.24 10 5 C 10 7.76 7.76 10 5 10 C 2.24 10 0 7.76 0 5 C 0 2.24 2.24 0 5 0 Z " fill-opacity="1" fill="#f76a52" stroke-opacity="1" stroke="#000000" stroke-width="2" stroke-linecap="round" stroke-linejoin="bevel"/><defs/></g><g id="obj_19" transform="matrix(1,0,0,1,151.817,89.076)" opacity="1" display="inline"><path d="M 5 0 C 7.76 0 10 2.24 10 5 C 10 7.76 7.76 10 5 10 C 2.24 10 0 7.76 0 5 C 0 2.24 2.24 0 5 0 Z " fill-opacity="1" fill="#f76a52" stroke-opacity="1" stroke="#000000" stroke-width="2" stroke-linecap="round" stroke-linejoin="bevel"/><defs/></g><g id="obj_20" transform="matrix(0.7071067811865476,-0.7071067811865475,0.7071067811865475,0.7071067811865476,81.27430255592762,143.752)" opacity="1" display="inline"><path d="M 0 16.667 C 0 13.907 2.24 11.667 5 11.667 L 11.667 11.667 L 11.667 5 C 11.667 2.24 13.907 0 16.667 0 L 16.667 0 C 19.427 0 21.667 2.24 21.667 5 L 21.667 11.667 L 28.334 11.667 C 31.094 11.667 33.334 13.907 33.334 16.667 L 33.334 16.667 C 33.334 19.427 31.094 21.667 28.334 21.667 L 21.667 21.667 L 21.667 28.334 C 21.667 31.094 19.427 33.334 16.667 33.334 L 16.667 33.334 C 13.907 33.334 11.667 31.094 11.667 28.334 L 11.667 21.667 L 5 21.667 C 2.24 21.667 0 19.427 0 16.667 L 0 16.667 Z " fill-opacity="1" fill="#f76a52" stroke-opacity="1" stroke="#000000" stroke-width="2" stroke-linecap="round" stroke-linejoin="bevel"/><defs/></g><g id="obj_33" transform="matrix(1,0,0,1,4.993,205)" opacity="1" display="inline"><path d="M 215.661 12 C 227.97 12 227.97 0 239.969 0 C 239.969 0 239.97 0 239.971 0 L 239.971 10 C 239.97 10 239.97 10 239.97 10 C 227.971 10 227.971 22 215.662 22 C 203.352 22 203.974 10 191.212 10 C 178.45 10 179.977 22 167.978 22 C 155.98 22 155.98 10 144.805 10 C 133.63 10 131.983 22 119.984 22 C 107.985 22 107.984 10 95.987 10 C 83.99 10 83.988 22 71.99 22 C 59.991 22 58.755 10 47.992 10 C 37.23 10 35.069 22 24.758 22 C 14.447 22 11.997 10 0.306 10 C 0.204 10 0.102 10.001 0 10.003 L 0 0.003 C 0.101 0.001 0.203 0 0.305 0 C 11.996 0 14.446 12 24.757 12 C 35.068 12 37.229 0 47.991 0 C 58.754 0 59.99 12 71.989 12 C 83.987 12 83.989 0 95.986 0 C 107.983 0 107.984 12 119.983 12 C 131.982 12 133.629 0 144.804 0 C 155.979 0 155.979 12 167.977 12 C 179.976 12 178.449 0 191.211 0 C 203.973 0 203.351 12 215.661 12 Z " fill-opacity="1" fill="#0da5c1" stroke-opacity="1" stroke="#000000" stroke-width="2" stroke-linecap="round" stroke-linejoin="bevel"/><defs/></g><g id="obj_34" transform="matrix(1,0,0,1,5.036,225)" opacity="1" display="inline"><path d="M 215.661 12 C 227.97 12 227.97 0 239.969 0 C 239.969 0 239.97 0 239.971 0 L 239.971 10 C 239.97 10 239.97 10 239.97 10 C 227.971 10 227.971 22 215.662 22 C 203.352 22 203.974 10 191.212 10 C 178.45 10 179.977 22 167.978 22 C 155.98 22 155.98 10 144.805 10 C 133.63 10 131.983 22 119.984 22 C 107.985 22 107.984 10 95.987 10 C 83.99 10 83.988 22 71.99 22 C 59.991 22 58.755 10 47.992 10 C 37.23 10 35.069 22 24.758 22 C 14.447 22 11.997 10 0.306 10 C 0.204 10 0.102 10.001 0 10.003 L 0 0.003 C 0.101 0.001 0.203 0 0.305 0 C 11.996 0 14.446 12 24.757 12 C 35.068 12 37.229 0 47.991 0 C 58.754 0 59.99 12 71.989 12 C 83.987 12 83.989 0 95.986 0 C 107.983 0 107.984 12 119.983 12 C 131.982 12 133.629 0 144.804 0 C 155.979 0 155.979 12 167.977 12 C 179.976 12 178.449 0 191.211 0 C 203.973 0 203.351 12 215.661 12 Z " fill-opacity="1" fill="#0da5c1" stroke-opacity="1" stroke="#000000" stroke-width="2" stroke-linecap="round" stroke-linejoin="bevel"/><defs/></g><g id="obj_42" transform="matrix(1,0,0,1,49.096,37.39)" opacity="1" display="inline"><path d="M 20 40 C 8.96 40 0 31.04 0 20 C 0 8.96 8.96 0 20 0 C 31.04 0 40 8.96 40 20 C 38.269 20 36.5891 20.2203 34.9868 20.6343 C 34.9956 20.424 35 20.2125 35 20 C 35 11.72 28.28 5 20 5 C 11.72 5 5 11.72 5 20 C 5 28.28 11.72 35 20 35 C 20.2125 35 20.424 34.9956 20.6343 34.9868 C 20.2203 36.589 20 38.269 20 40 Z " fill-opacity="1" fill="#0da5c1" stroke-opacity="1" stroke="#000000" stroke-width="2" stroke-linecap="round" stroke-linejoin="bevel"/><defs/></g><g id="obj_41" transform="matrix(1,0,0,1,39.096,27.39)" opacity="1" display="inline"><path d="M 30 60 C 13.44 60 0 46.56 0 30 C 0 13.44 13.44 0 30 0 C 46.56 0 60 13.44 60 30 L 55 30 C 55 16.2 43.8 5 30 5 C 16.2 5 5 16.2 5 30 C 5 43.8 16.2 55 30 55 L 30 60 Z " fill-opacity="1" fill="#0da5c1" stroke-opacity="1" stroke="#000000" stroke-width="2" stroke-linecap="round" stroke-linejoin="bevel"/><defs/></g><g id="obj_40" transform="matrix(1,0,0,1,29.096,17.39)" opacity="1" display="inline"><path d="M 40 80 C 17.92 80 0 62.08 0 40 C 0 17.92 17.92 0 40 0 C 62.08 0 80 17.92 80 40 L 75 40 C 75 20.68 59.32 5 40 5 C 20.68 5 5 20.68 5 40 C 5 59.32 20.68 75 40 75 L 40 80 Z " fill-opacity="1" fill="#0da5c1" stroke-opacity="1" stroke="#000000" stroke-width="2" stroke-linecap="round" stroke-linejoin="bevel"/><defs/></g></g></svg>